<svg height="512" viewBox="0 0 60 60" width="512" xmlns="http://www.w3.org/2000/svg">
  <g fill-rule="nonzero" fill="none">
    <rect fill="#ff9801" height="58" rx="3" width="29" x="1" y="1"/>
    <path d="M27 1h-3a3 3 0 013 3v52a3 3 0 01-3 3h3a3 3 0 003-3V4a3 3 0 00-3-3z" fill="#f57c00"/>
    <path d="M22 48v1a4 4 0 01-4 4H9a4 4 0 01-4-4v-1z" fill="#008a00"/>
    <path d="M19 48v1a4 4 0 01-4 4h3a4 4 0 004-4v-1z" fill="#007900"/>
    <path d="M22 41v7H5v-7c0-1 0-2 .2-3h16.6l.2 3z" fill="#ffe0b2"/>
    <path d="M21.8 38H5.2c.4-3 1.3-6 2.8-8.8a24.6 24.6 0 003-11.7V17a2.5 2.5 0 01.5-5H16a2.5 2.5 0 010 5v.5c0 4 1 8.1 3 11.7a24.6 24.6 0 012.8 8.8z" fill="#008a00"/>
    <path d="M21.2 35c-.5-2-1.2-4-2.2-5.8-2-3.6-3-7.6-3-11.7v-.6a2.5 2.5 0 00-.5-4.9h-3 .5a2.5 2.5 0 010 5v.5c0 4 1 8.1 3 11.7a24.6 24.6 0 012.8 8.8h3l-.6-3z" fill="#007900"/>
    <path d="M16 8v4h-5V8c0-.6.4-1 1-1h3c.6 0 1 .4 1 1z" fill="#ffeb3a"/>
    <rect fill="#ff5722" height="58" rx="3" width="29" x="30" y="1"/>
    <path d="M56 1h-3a3 3 0 013 3v52a3 3 0 01-3 3h3a3 3 0 003-3V4a3 3 0 00-3-3z" fill="#d84315"/>
    <g fill="#f5f5f5">
      <path d="M51 21h-2a1 1 0 010-2h2a1 1 0 010 2zM45 21h-7a1 1 0 010-2h7a1 1 0 010 2zM51 26h-2a1 1 0 010-2h2a1 1 0 010 2zM45 26h-7a1 1 0 010-2h7a1 1 0 010 2zM51 31h-2a1 1 0 010-2h2a1 1 0 010 2zM45 31h-7a1 1 0 010-2h7a1 1 0 010 2zM51 36h-2a1 1 0 010-2h2a1 1 0 010 2zM45 36h-7a1 1 0 010-2h7a1 1 0 010 2zM51 41h-2a1 1 0 010-2h2a1 1 0 010 2zM45 41h-7a1 1 0 010-2h7a1 1 0 010 2zM51 46h-2a1 1 0 010-2h2a1 1 0 010 2zM45 46h-7a1 1 0 010-2h7a1 1 0 010 2zM46 54h-3a1 1 0 010-2h3a1 1 0 010 2zM47 9h-5a1 1 0 010-2h5a1 1 0 010 2zM50 13H39a1 1 0 010-2h11a1 1 0 010 2z"/>
    </g>
    <path d="M22.8 38a26 26 0 00-3-9.2A23.6 23.6 0 0117 17.7a3.5 3.5 0 000-6.3V8a2 2 0 00-2-2h-3a2 2 0 00-2 2v3.4c-1.2.5-2 1.7-2 3.1 0 1.4.8 2.6 2 3.2a23.9 23.9 0 01-2.9 11A25.5 25.5 0 004 41v8.1a5 5 0 005 5h9a5 5 0 005-5v-8c0-1 0-2-.2-3zM6 41l.1-2h14.8l.1 2v6H6zm9-33v3h-3V8zM8.9 29.7A25.6 25.6 0 0012 17.5V17a1 1 0 00-.8-1 1.5 1.5 0 01.3-3h4a1.5 1.5 0 01.3 3 1 1 0 00-.8 1v.5c0 4.3 1 8.5 3.1 12.2a23.6 23.6 0 012.5 7.3H6.4c.4-2.5 1.2-5 2.5-7.3zM18 52H9a3 3 0 01-3-3h15a3 3 0 01-3 3z" fill="#000"/>
    <path d="M56 0H33a4 4 0 00-3 1.4A4 4 0 0027 0H4a4 4 0 00-4 4v52a4 4 0 004 4h23a4 4 0 003-1.4 4 4 0 003 1.4h23a4 4 0 004-4V4a4 4 0 00-4-4zM27 58H4a2 2 0 01-2-2V4c0-1.1.9-2 2-2h23a2 2 0 012 2v4c-2.3.5-4 2-4 4a1 1 0 002 0c0-.9.8-1.6 2-1.9v4c-2.3.4-4 2-4 3.9a1 1 0 002 0c0-.9.8-1.6 2-1.9v4c-2.3.4-4 2-4 3.9a1 1 0 002 0c0-.9.8-1.6 2-1.9v4c-2.3.4-4 2-4 3.9a1 1 0 002 0c0-.9.8-1.6 2-1.9v4c-2.3.4-4 2-4 3.9a1 1 0 002 0c0-.9.8-1.6 2-1.9v4c-2.3.4-4 2-4 3.9a1 1 0 002 0c0-.9.8-1.6 2-1.9v4c-2.3.4-4 2-4 3.9a1 1 0 002 0c0-.9.8-1.6 2-1.9V56a2 2 0 01-2 2zm31-2a2 2 0 01-2 2H33a2 2 0 01-2-2v-9.9c1.1.3 2 1 2 1.9a1 1 0 002 0c0-2-1.7-3.5-4-4v-3.9c1.1.3 2 1 2 1.9a1 1 0 002 0c0-2-1.7-3.5-4-4v-3.9c1.1.3 2 1 2 1.9a1 1 0 002 0c0-2-1.7-3.5-4-4v-3.9c1.1.3 2 1 2 1.9a1 1 0 002 0c0-2-1.7-3.5-4-4v-3.9c1.1.3 2 1 2 1.9a1 1 0 002 0c0-2-1.7-3.5-4-4v-3.9c1.1.3 2 1 2 1.9a1 1 0 002 0c0-2-1.7-3.5-4-4v-3.9c1.1.3 2 1 2 1.9a1 1 0 002 0c0-2-1.7-3.5-4-4V4c0-1.1.9-2 2-2h23a2 2 0 012 2z" fill="#000"/>
    <path d="M15 42h-3a1 1 0 000 2h3a1 1 0 000-2z" fill="#000"/>
  </g>
</svg>
