<svg xmlns="http://www.w3.org/2000/svg" x="0px" y="0px" viewBox="0 0 512 512">
  <path d="M210 502h272c11 0 20-9 20-20V101l-91-91H114c-11 0-20 9-20 20v452c0 11 9 20 20 20h96z" fill="#fff"/>
  <path d="M411 11.2V81c0 11 9 20 20 20h69.8L411 11.2z" fill="#fec96b"/>
  <path d="M168 85.8A122 122 0 1145.7 208H168V86z" fill="#a0e557"/>
  <path d="M168 208V85.7c33.6 0 64.1 13.7 86.2 35.8L168 207.9z" fill="#39ddd2"/>
  <path d="M132 50v122H10A122 122 0 01132 50z" fill="#fec96b"/>
  <circle cx="438.07" cy="345.6" r="20" fill="#39ddd2"/>
  <circle cx="339.74" cy="441.9" r="20" fill="#fec96b"/>
  <circle cx="260.73" cy="365.6" r="20" fill="#a0e557"/>
  <circle cx="183.9" cy="441.94" r="20" fill="#ff5d5d"/>
  <path d="M509 94L418 3a10 10 0 00-7-3H114a30 30 0 00-30 30v19A132.3 132.3 0 000 172a10 10 0 0010 10h122a10 10 0 0010-10V50a10 10 0 00-10-10c-9.5 0-19 1-28 3V30a10 10 0 0110-10h287v61a30 30 0 0030 30h61v371a10 10 0 01-10 10H114a10 10 0 01-10-10v-85.7a10 10 0 00-20 0V482a30 30 0 0030 30h368a30 30 0 0030-30V101c0-2.7-1-5.2-3-7zm-387 68H20.5A112.3 112.3 0 01122.1 60.5v101.7zm299-81V34.1L477.9 91H431a10 10 0 01-10-10z"/>
  <path d="M87 353a10 10 0 000 14 10 10 0 0014 0 10 10 0 000-14 10 10 0 00-14 0zM300 208c0-73-59.3-132.2-132-132.2a10 10 0 00-10 10V198H45.7a10 10 0 00-10 10C35.8 280.7 95.1 340 168 340S300 280.7 300 208zm-60.3-86L178 183.7V96.3c23.4 2 44.8 11.4 61.8 25.6zM56.3 218h111.6a10 10 0 007-3l79-79a112.2 112.2 0 11-197.6 81.8zM290.7 365.6a30 30 0 10-57.2 12.6l-36.7 36.7A30 30 0 10211 429l36.5-36.5a29.8 29.8 0 0028-.8l37.2 37.2a30 30 0 1054.2.3l57-57.1a30 30 0 10-13.5-14.8l-57.6 57.6a29.8 29.8 0 00-25.9-.1l-38.2-38.3c1.3-3.4 2-7 2-10.9zM184 451.9a10 10 0 117-17.2v.2l.2.1a10 10 0 01-7.2 17zm76.8-76.3a10 10 0 110-20 10 10 0 010 20zm177.4-40a10 10 0 110 20 10 10 0 010-20zm-88.4 106.3a10 10 0 11-20 0 10 10 0 0120 0zM335.3 255h52.8a10 10 0 000-20h-52.8a10 10 0 000 20zM426.6 238a10 10 0 000 14 10 10 0 0014 0 10 10 0 000-14 10 10 0 00-14 0zM335.3 159h122.2a10 10 0 000-20H335.3a10 10 0 000 20zM335.3 207h122.2a10 10 0 000-20H335.3a10 10 0 000 20z"/>
</svg>
