<svg xmlns="http://www.w3.org/2000/svg" viewBox="0 0 64 64" width="512" height="512">
  <g data-name="Medical Report">
    <rect x="6" y="9" width="42" height="52" rx="4" fill="#8b5e3c"/>
    <rect x="11" y="13" width="32" height="44" rx="1" fill="#e6e7e8"/>
    <rect x="15" y="22" width="24" height="10" fill="#78b9eb"/>
    <path d="M40 13v1a2 2 0 01-2 2H16a2 2 0 01-2-2V8h26v5z" fill="#ffa733"/>
    <path d="M43 30v26a1 1 0 01-1 1H16z" fill="#d8d7da"/>
    <path d="M58 46a12 12 0 11-15-11.6 11.9 11.9 0 013-.4 12 12 0 0112 12z" fill="#ffd422"/>
    <polygon points="53 44 53 48 48 48 48 53 44 53 44 48 39 48 39 44 44 44 44 39 48 39 48 44 53 44" fill="#ff5023"/>
    <path d="M59 46a13 13 0 00-10-12.6V13a5 5 0 00-5-5h-3a1 1 0 00-1-1H29.2a3 3 0 10-4.4 0H14a1 1 0 00-1 1h-3a5 5 0 00-5 5v44a5 5 0 005 5h34a5 5 0 004.7-3.3A13 13 0 0059 46zM27 4a1 1 0 11-1 1 1 1 0 011-1zm17 6a3 3 0 013 3v20h-1a13 13 0 00-2 .2V14a2 2 0 00-2-2h-1v-2zM15 9h24v5a1 1 0 01-1 1H16a1 1 0 01-1-1zm1 8h22a3 3 0 003-3h1v19.6A13 13 0 0037.7 56H12V14h1a3 3 0 003 3zm28 43H10a3 3 0 01-3-3V13a3 3 0 013-3h3v2h-1a2 2 0 00-2 2v42a2 2 0 002 2h29a13 13 0 005 1h.2a3 3 0 01-2.2 1zm2-3a11 11 0 1111-11 11 11 0 01-11 11z"/>
    <path d="M53 43h-4v-4a1 1 0 00-1-1h-4a1 1 0 00-1 1v4h-4a1 1 0 00-1 1v4a1 1 0 001 1h4v4a1 1 0 001 1h4a1 1 0 001-1v-4h4a1 1 0 001-1v-4a1 1 0 00-1-1zm-1 4h-4a1 1 0 00-1 1v4h-2v-4a1 1 0 00-1-1h-4v-2h4a1 1 0 001-1v-4h2v4a1 1 0 001 1h4zM15 33h24a1 1 0 001-1V22a1 1 0 00-1-1H15a1 1 0 00-1 1v10a1 1 0 001 1zm1-10h22v8H16z"/>
    <rect x="14" y="37" width="4" height="2"/>
    <rect x="20" y="37" width="12" height="2"/>
    <rect x="14" y="41" width="18" height="2"/>
    <rect x="14" y="45" width="8" height="2"/>
    <rect x="24" y="45" width="6" height="2"/>
  </g>
</svg>
