<svg height="512pt" viewBox="0 0 1024 1024" width="512pt" xmlns="http://www.w3.org/2000/svg">
  <path d="M280 440H8v-69.4a48 48 0 0132.8-45.5L128 296v-32h96v32l56 18.7zm0 0" fill="#ff826e"/>
  <path d="M128 256h96v88h-96zm0 0" fill="#f0d0b4"/>
  <path d="M64 184v-64a112 112 0 01224 0v64zm0 0" fill="#b27946"/>
  <path d="M128 283a95.3 95.3 0 0096 0v-27h-96zm0 0" fill="#ecc19c"/>
  <path d="M256 156v44a80 80 0 11-160 0v-44a36 36 0 0157.6-28.8L176 144l22.4-16.8A36 36 0 01256 156zm0 0" fill="#f0d0b4"/>
  <path d="M96 152a32 32 0 000 64h160a32 32 0 000-64zm0 0" fill="#f0d0b4"/>
  <path d="M224 296l-48 48 56 40 16-80zm0 0M128 296l48 48-56 40-16-80zm0 0" fill="#e6e9ed"/>
  <path d="M72 440v-56l-16 56zm0 0M280 314.7l-16-5.4V440h16zm0 0" fill="#fc6e51"/>
  <path d="M488 488H280V248h160l48 48zm0 0" fill="#e6e9ed"/>
  <path d="M488 296l-48-48h-8v64h56zm0 0" fill="#ccd1d9"/>
  <path d="M440 248v48h48zm0 0M392 392h64v64h-64zm0 0" fill="#b4dd7f"/>
  <path d="M488 136a80 80 0 11-160 0 80 80 0 01160 0zm0 0" fill="#fcd770"/>
  <path d="M144 168a8 8 0 11-16 0 8 8 0 0116 0zm0 0M224 168a8 8 0 11-16 0 8 8 0 0116 0zm0 0M176 248a32 32 0 0032-32h-16a16 16 0 01-32 0h-16a32 32 0 0032 32zm0 0"/>
  <path d="M272 240v63.6l-40-13.4v-22.4a88.1 88.1 0 0028.7-44.3A40 40 0 00296 184v-64a120.1 120.1 0 00-240 0v64a40 40 0 0035.3 39.5c4.9 17.6 15 33 28.7 44.3v22.4l-81.7 27.3a56 56 0 00-38.3 53V448h272v48h224V292.7L443.3 240zm176 27.3l20.7 20.7H448zm-209.2 42l-12.2 61-38.3-27.3 37.9-37.8zm24.9-102.7l.3-6.6v-38.5a24 24 0 0116 22.5 24 24 0 01-16.3 22.6zM72 184a24 24 0 0116-22.5V200l.3 6.6A24 24 0 0172 184zm17.5-39.3c-6.5 1-12.4 3.7-17.5 7.5V120a104.1 104.1 0 01208 0v32.2c-5-3.8-11-6.5-17.5-7.5a44 44 0 00-68.9-23.9L176 134l-17.6-13.2a44 44 0 00-68.9 23.8zM104 200v-44a28 28 0 0144.8-22.4L176 154l27.2-20.4A28 28 0 01248 156v44a72 72 0 01-144 0zm72 88c14.4 0 28-3.6 40-9.7v14.4l-40 40-40-40v-14.4c12 6.1 25.6 9.7 40 9.7zm-50.2 17.2l37.9 37.8-38.3 27.3-12.2-61zM80 432v-48H64v48H16v-61.4a40 40 0 0127.4-38l54.5-18.1 16.7 83.2 61.4-43.9 61.4 43.9 16.7-83.2 17.9 6V432zm208 48V256h144v48h48v176zm0 0"/>
  <path d="M384 464h80v-80h-80zm16-64h48v48h-48zm0 0M304 448h64v16h-64zm0 0M304 416h64v16h-64zm0 0M304 384h64v16h-64zm0 0M304 272h16v16h-16zm0 0M336 272h80v16h-80zm0 0M304 304h112v16H304zm0 0M448 336h16v16h-16zm0 0M304 336h128v16H304zm0 0M408 224a88.1 88.1 0 0071.6-139l14.3-15.6L482 58.6l-13 14.2A88.1 88.1 0 10408 224zm0-160c19.6 0 37.3 7.9 50.3 20.6L399.2 149 365 121.8l-10 12.4 45.8 36.7 67.7-73.8A72 72 0 11408 64zm0 0"/>
</svg>
