<svg height="512" width="512" xmlns="http://www.w3.org/2000/svg">
  <path d="M428.2 504.5H150.5a57.3 57.3 0 01-57.3-57.3V105.6a57.3 57.3 0 0157.3-57.3h277.7a57.3 57.3 0 0157.3 57.3v341.6a57.3 57.3 0 01-57.3 57.3z" fill="#c67d66"/>
  <path d="M169.7 504.5h-19.2a57.3 57.3 0 01-57.3-57.3V105.6a57.3 57.3 0 0157.3-57.3h19.2a57.3 57.3 0 00-57.2 57.3v341.6a57.3 57.3 0 0057.2 57.3z" fill="#aa593d"/>
  <path d="M416.4 452.5h-254a23 23 0 01-23.1-23.1v-306a23 23 0 0123-23h254a23 23 0 0123.1 23v306a23 23 0 01-23 23z" fill="#ddeafb"/>
  <path d="M364.1 7.5H214.6a36.7 36.7 0 00-36.7 36.7v44.7a36.7 36.7 0 0036.7 36.7H364a36.7 36.7 0 0036.7-36.7V44.2a36.7 36.7 0 00-36.7-36.7z" fill="#f1d333"/>
  <path d="M243.5 125.6h-29A36.7 36.7 0 01178 88.9V44.2a36.7 36.7 0 0136.7-36.7h28.9a36.7 36.7 0 00-36.7 36.7v44.7a36.7 36.7 0 0036.7 36.7z" fill="#eab14d"/>
  <g fill="#617881">
    <circle cx="241.191" cy="65.886" r="24.749"/>
    <circle cx="337.529" cy="65.886" r="24.749"/>
  </g>
  <circle cx="150.483" cy="380.507" fill="#dd636e" r="123.993"/>
  <path d="M169.8 503a124 124 0 110-245 124 124 0 000 245z" fill="#da4a54"/>
  <g>
    <path d="M241.2 33.6a32.3 32.3 0 100 64.6 32.3 32.3 0 000-64.6zm0 49.5a17.3 17.3 0 110-34.5 17.3 17.3 0 010 34.5zM369.8 65.9a32.3 32.3 0 10-64.6 0 32.3 32.3 0 0064.6 0zM337.5 83a17.3 17.3 0 110-34.5 17.3 17.3 0 010 34.5z"/>
    <path d="M428.2 40.8h-20a44.2 44.2 0 00-44-40.8H214.5c-23.2 0-42.3 18-44 40.8h-20.1c-35.7 0-64.8 29-64.8 64.8V266A131.6 131.6 0 0034 441.4a7.5 7.5 0 0013.3-7A116.6 116.6 0 01150.5 264a116.6 116.6 0 0128.4 229.5A116.3 116.3 0 0165.4 460a7.5 7.5 0 10-11 10.3 132 132 0 0096 41.7h277.8c35.8 0 64.8-29 64.8-64.8V105.6c0-35.7-29-64.8-64.8-64.8zm-327.5 64.8a49.8 49.8 0 0149.8-49.8h20V89l.1 4h-8.2a30.6 30.6 0 00-30.6 30.5v127a130.4 130.4 0 00-31 8.4V105.6zM150.5 249h-3.7V123.5c0-8.6 7-15.6 15.6-15.6h12.3a44.2 44.2 0 0039.9 25.3h132.8a7.5 7.5 0 100-15H214.6c-16.1 0-29.2-13.1-29.2-29.2V44.2c0-16.1 13.1-29.2 29.2-29.2H364c16.1 0 29.2 13 29.2 29.2v44.7a29 29 0 01-16.2 26.1 7.5 7.5 0 106.7 13.5 44 44 0 0020.3-20.7h12.3c8.6 0 15.5 7 15.5 15.6v306c0 8.6-7 15.6-15.5 15.6H265a131.6 131.6 0 00-114.6-196zM478 447.2a49.8 49.8 0 01-49.8 49.8H211.4c17.2-9 32.1-21.7 43.8-37h161.2a30.6 30.6 0 0030.5-30.6v-306a30.6 30.6 0 00-30.5-30.6H408l.2-3.9v-33h20a49.8 49.8 0 0149.7 49.7z"/>
    <path d="M185 177.5h208.7a7.5 7.5 0 100-15H185a7.5 7.5 0 100 15zM401.2 209.9c0-4.1-3.4-7.5-7.5-7.5H185a7.5 7.5 0 100 15h208.7c4.1 0 7.5-3.4 7.5-7.5zM401.2 249.8c0-4.2-3.4-7.5-7.5-7.5H218a7.5 7.5 0 100 15h175.7c4.1 0 7.5-3.4 7.5-7.5zM401.2 289.7c0-4.2-3.4-7.5-7.5-7.5h-127a7.5 7.5 0 100 15h127c4.1 0 7.5-3.4 7.5-7.5zM89.8 441.2a7.5 7.5 0 0010.6 0l50-50 50.2 50a7.5 7.5 0 1010.6-10.6l-50.1-50 50.1-50.2a7.5 7.5 0 10-10.6-10.6l-50.1 50.1-50.1-50.1a7.5 7.5 0 00-10.6 10.6l50 50.1-50 50.1c-3 3-3 7.7 0 10.6z"/>
  </g>
</svg>
