<svg
  height="512"
  viewBox="0 0 64 64"
  width="512"
  xmlns="http://www.w3.org/2000/svg"
>
  <path d="M54 34h8v28H5a3 3 0 110-6h46a3 3 0 003-3z" fill="#ffeaa7" />
  <path d="M46 28h5a3 3 0 013 3v22a3 3 0 00-3-3h-5V34z" fill="#f0d0b4" />
  <path
    d="M53.12 50.88A3 3 0 0051 50h-5V34H5a3 3 0 00-3 3v22a3 3 0 013-3h46a3 3 0 002.12-5.12z"
    fill="#e6e9ed"
  />
  <path
    d="M22 6H4a2 2 0 00-2 2v16c0 1.1.9 2 2 2h15.43l2.19 3.41a1.3 1.3 0 002.38-.7V8a2 2 0 00-2-2z"
    fill="#ffeaa7"
  />
  <path
    d="M48 8h12a2 2 0 012 2v8a2 2 0 01-2 2h-9.43l-2.19 3.41a1.3 1.3 0 01-2.38-.7V10c0-1.1.9-2 2-2z"
    fill="#e6e9ed"
  />
  <path d="M42 34v4h-6V16h6z" fill="#69d6f4" />
  <path d="M36 16v22h-6V16z" fill="#b4dd7f" />
  <path d="M42 12v4H30v-4z" fill="#ffeaa7" />
  <path
    d="M42 8v4H30V8c0-1.66.67-3.16 1.76-4.24A6 6 0 0142 8zM42 38l-4.47 7.15a1.8 1.8 0 01-3.06 0L30 38h6z"
    fill="#aab2bd"
  />
  <path d="M6 38h8v14H6z" fill="#ff826e" />
  <g>
    <path d="M55 31a4 4 0 00-4-4h-6v6h-2V8a7 7 0 00-14 0v25H5a4 4 0 00-4 4v22a4 4 0 004 4h58V33h-8zm-8-2h4a2 2 0 012 2v18.54a3.97 3.97 0 00-2-.54h-4zm-6-14H31v-2h10zm-6 2v20h-4V17zm5.2 22l-3.52 5.62c-.3.48-1.07.48-1.36 0L31.8 39zm.8-2h-4V17h4zM36 3a5 5 0 015 5v3H31V8a5 5 0 015-5zM5 35h24v3.29l4.62 7.4c.52.82 1.4 1.31 2.38 1.31s1.86-.5 2.38-1.32l4.62-7.4V35h2v16h6a2 2 0 010 4H5c-.73 0-1.4.21-2 .56V37c0-1.1.9-2 2-2zm56 0v26H5a2 2 0 010-4h46a4 4 0 004-4V35z" />
    <path d="M15 37H5v16h10zm-2 14H7V39h6zM17 37h2v16h-2zM21 51h2v2h-2zM21 37h2v12h-2zM25 37h2v16h-2zM29 49h2v4h-2zM33 49h2v4h-2zM37 49h2v4h-2zM41 49h2v4h-2zM49 31h2v2h-2zM49 39h2v2h-2zM49 35h2v2h-2zM57 37h2v2h-2zM57 41h2v18h-2zM60 7H48a3 3 0 00-3 3v12.7a2.3 2.3 0 004.22 1.25l1.9-2.95H60a3 3 0 003-3v-8a3 3 0 00-3-3zm1 11a1 1 0 01-1 1h-9.97l-2.49 3.87c-.14.22-.54.1-.54-.16V10a1 1 0 011-1h12a1 1 0 011 1v8zM4 27h14.88l1.9 2.95A2.3 2.3 0 0025 28.7V8a3 3 0 00-3-3H4a3 3 0 00-3 3v16a3 3 0 003 3zM3 8a1 1 0 011-1h18a1 1 0 011 1v20.7c0 .27-.4.39-.54.17L19.97 25H4a1 1 0 01-1-1z" />
    <path d="M52 15.59l-1.3-1.3-1.4 1.42 2.7 2.7 6.7-6.7-1.4-1.42zM12 19a1 1 0 01-1-1H9a3 3 0 003 3v2h2v-2h3v-3a3 3 0 00-3-3h-2a1 1 0 01-1-1v-1h3a1 1 0 011 1h2a3 3 0 00-3-3V9h-2v2H9v3a3 3 0 003 3h2a1 1 0 011 1v1z" />
  </g>
</svg>
