<svg xmlns="http://www.w3.org/2000/svg" viewBox="0 0 512 512">
  <g fill="#7a609e">
    <path d="M184.9 202.37a36.26 36.26 0 00-36.16-36.15h-29.26v-24.88h.32l15.13-16.67a34 34 0 008.83-22.86V66.68a36.85 36.85 0 00-36.85-36.86h-20.5a36.85 36.85 0 00-36.85 36.86v35.13a34 34 0 008.83 22.86l15.14 16.66h.31v24.88H44.6a36.26 36.26 0 00-36.16 36.16v49.71h169.23l7.23-49.71zM328.59 202.37a36.26 36.26 0 0136.15-36.15h29.25v-24.88h-.31l-15.14-16.67a34 34 0 01-8.82-22.86V66.68a36.85 36.85 0 0136.85-36.86h20.49a36.85 36.85 0 0136.85 36.86v35.13a34 34 0 01-8.83 22.86l-15.13 16.66h-.32v24.88h29.26a36.26 36.26 0 0136.15 36.16v49.71H345.93l-17.34-49.71z" />
  </g>
  <path
    d="M245 46.55a41.5 41.5 0 00-41.5 41.51v39.57a38.3 38.3 0 009.94 25.74l17.04 18.78h.36v28.02h-32.95a40.84 40.84 0 00-40.72 40.72v55.99h198.74v-56a40.84 40.84 0 00-40.72-40.71h-32.95v-28.03h.36l17.04-18.77a38.3 38.3 0 009.95-25.74V88.06a41.5 41.5 0 00-41.51-41.5H245z"
    fill="#52d6c6"
  />
  <g opacity=".1">
    <path d="M315.19 200.17h-31.06a40.84 40.84 0 0140.71 40.72v55.99h31.07v-56a40.84 40.84 0 00-40.72-40.71zM278.52 88.06v39.57a38.3 38.3 0 01-9.94 25.74l-17.05 18.78h-.35v28.02h31.06v-28.02h.36l17.04-18.78a38.3 38.3 0 009.95-25.74V88.06a41.5 41.5 0 00-41.51-41.5H245c-1.35 0-2.68.06-4 .19a41.5 41.5 0 0137.52 41.31z" />
  </g>
  <g fill="#fdc00f">
    <path d="M259.63 355.68l21.33 41.3 45.87 7.52-32.68 33.05 7.01 45.94-41.53-20.86-41.53 20.87 7.02-45.95-32.68-33.05 45.86-7.52zM428.12 299.09l21.33 41.29 45.87 7.53-32.68 33.05 7 45.94-41.52-20.87-41.53 20.87 7.02-45.94-32.68-33.05 45.86-7.53zM91.14 299.09l21.33 41.29 45.87 7.53-32.68 33.05 7.01 45.94-41.53-20.87-41.52 20.87 7-45.94-32.67-33.05 45.86-7.53z" />
  </g>
  <path d="M468.15 157.86H446.6V144l13.46-14.82a41.62 41.62 0 0010.82-28.03V66.02a44.6 44.6 0 00-44.55-44.55h-20.49a44.6 44.6 0 00-44.55 44.55v35.13a41.62 41.62 0 0010.83 28.03L385.56 144v13.86H364a43.92 43.92 0 00-42.82 34.43c-2.2-.31-4.44-.48-6.73-.48H289.2v-16.96l15.4-16.96a45.91 45.91 0 0011.95-30.92V87.4a49.26 49.26 0 00-49.2-49.2 7.7 7.7 0 100 15.4 33.85 33.85 0 0133.8 33.8v39.57c0 7.62-2.82 14.93-7.94 20.57L277.34 165a7.69 7.69 0 00-3.53 6.48v28.02a7.7 7.7 0 007.7 7.7h32.94a33.06 33.06 0 0133.02 33.02v48.3H164.13v-48.3c0-14.2 9-26.33 21.6-30.99.6-.12 1.16-.32 1.7-.57a32.93 32.93 0 019.72-1.47h32.95a7.7 7.7 0 007.7-7.7V171.5a7.7 7.7 0 00-3.54-6.48l-15.86-17.47a30.55 30.55 0 01-7.95-20.57V87.4a33.85 33.85 0 0133.8-33.8 7.7 7.7 0 100-15.4 49.26 49.26 0 00-49.2 49.2v39.57A45.91 45.91 0 00207 157.89l15.4 16.96v16.96h-25.25c-2.15 0-4.26.15-6.34.43A43.92 43.92 0 00148 157.86h-21.56v-13.87l13.45-14.81a41.61 41.61 0 0010.83-28.03V66.02a44.6 44.6 0 00-44.55-44.55h-20.5a44.6 44.6 0 00-44.54 44.55v35.13a41.62 41.62 0 0010.83 28.03L65.4 144v13.86H43.85A43.9 43.9 0 000 201.7v49.72a7.7 7.7 0 007.7 7.7h119.75a7.7 7.7 0 100-15.4H15.4V201.7a28.49 28.49 0 0128.46-28.46h29.26a7.7 7.7 0 007.7-7.7v-24.87a7.69 7.69 0 00-3.45-6.42l-14-15.42a26.26 26.26 0 01-6.84-17.69V66.02a29.19 29.19 0 0129.16-29.16h20.49a29.19 29.19 0 0129.16 29.16v35.13c0 6.55-2.43 12.83-6.84 17.68l-14 15.43a7.69 7.69 0 00-3.44 6.42v24.87a7.7 7.7 0 007.7 7.7H148a28.5 28.5 0 0128 23.43 48.47 48.47 0 00-27.27 43.54v56a7.7 7.7 0 007.7 7.7h198.74a7.7 7.7 0 007.7-7.7v-56a48.46 48.46 0 00-26.9-43.35A28.5 28.5 0 01364 173.25h29.26a7.7 7.7 0 007.7-7.7v-24.88a7.69 7.69 0 00-3.45-6.4l-14-15.44a26.26 26.26 0 01-6.84-17.68V66.02a29.19 29.19 0 0129.16-29.16h20.5a29.19 29.19 0 0129.15 29.16v35.13c0 6.55-2.43 12.83-6.83 17.68l-14.01 15.43a7.69 7.69 0 00-3.44 6.42v24.87a7.7 7.7 0 007.7 7.7h29.25a28.49 28.49 0 0128.46 28.46v42.02H385.87a7.7 7.7 0 100 15.4H504.3a7.7 7.7 0 007.7-7.7V201.7a43.9 43.9 0 00-43.85-43.85zM327.33 396.25l-42.04-6.9-19.56-37.86a7.7 7.7 0 00-13.68 0l-19.55 37.86-42.05 6.9a7.7 7.7 0 00-4.22 13l29.95 30.3-6.43 42.13a7.7 7.7 0 0011.07 8.04l38.07-19.13 38.07 19.13a7.69 7.69 0 0011.07-8.04l-6.43-42.12 29.96-30.3a7.7 7.7 0 00-4.23-13.01zm-39.4 35.23a7.7 7.7 0 00-2.13 6.57l4.76 31.22-28.21-14.18a7.7 7.7 0 00-6.91 0l-28.22 14.18 4.77-31.22a7.7 7.7 0 00-2.14-6.57l-22.2-22.45 31.16-5.12a7.7 7.7 0 005.59-4.06l14.5-28.06 14.48 28.06a7.7 7.7 0 005.6 4.06l31.15 5.12-22.2 22.45zM495.82 339.65l-42.04-6.9-19.56-37.85a7.7 7.7 0 00-13.68 0L401 332.75l-42.05 6.9a7.7 7.7 0 00-4.23 13.01l29.96 30.3-6.43 42.12a7.7 7.7 0 0011.07 8.04l38.07-19.13 38.07 19.13a7.69 7.69 0 0011.07-8.04l-6.43-42.12 29.95-30.3a7.7 7.7 0 00-4.22-13zm-39.4 35.24a7.7 7.7 0 00-2.13 6.57l4.76 31.21-28.21-14.17a7.7 7.7 0 00-6.91 0l-28.22 14.17 4.76-31.21a7.7 7.7 0 00-2.13-6.58l-22.2-22.45 31.16-5.11a7.7 7.7 0 005.59-4.07l14.49-28.05 14.5 28.05a7.7 7.7 0 005.59 4.07l31.16 5.11-22.2 22.45zM158.85 339.65l-42.05-6.9-19.56-37.85a7.7 7.7 0 00-13.67 0L64 332.75l-42.05 6.9a7.7 7.7 0 00-4.22 13.01l29.96 30.3-6.43 42.12a7.7 7.7 0 0011.06 8.04l38.07-19.13 38.08 19.13a7.69 7.69 0 0011.06-8.04l-6.43-42.12 29.96-30.3a7.7 7.7 0 00-4.22-13zm-39.4 35.24a7.7 7.7 0 00-2.14 6.57l4.77 31.21-28.22-14.17a7.7 7.7 0 00-6.91 0l-28.22 14.17 4.77-31.21a7.7 7.7 0 00-2.14-6.58l-22.2-22.45 31.16-5.11a7.7 7.7 0 005.6-4.07L90.4 315.2l14.49 28.05a7.7 7.7 0 005.6 4.07l31.15 5.11-22.2 22.45z" />
</svg>
