<svg xmlns="http://www.w3.org/2000/svg" viewBox="0 0 512 512">
  <path
    fill="#ffce54"
    d="M462.65 326.07L293.5 387.64 238.8 237.28l169.13-61.55z"
  />
  <path
    d="M494.24 314.64l10.26 28.19-193.28 70.28a55.4 55.4 0 00-10.25-28.19l161.68-58.85 31.59-11.43z"
    fill="#ccd1d9"
  />
  <path
    fill="#f6bb42"
    d="M363.47 53.57l44.46 122.16-65.78 23.94-37.58 13.68-65.77 23.93-44.46-122.14z"
  />
  <path
    fill="#ed5565"
    d="M342.15 199.67l13.68 37.58-37.58 13.68-13.68-37.59z"
  />
  <path fill="#da4453" d="M297.7 77.51l13.67 37.59-37.59 13.68L260.1 91.2z" />
  <path
    d="M300.97 384.92a55.36 55.36 0 0110.25 28.19 55.02 55.02 0 01-106.54 22.82 55.03 55.03 0 0119.47-63.42 55.39 55.39 0 0128.2-10.25 55.04 55.04 0 0148.62 22.66z"
    fill="#656d78"
  />
  <g fill="#ccd1d9">
    <path d="M270.45 411.99a15.01 15.01 0 11-28.21 10.25A15.01 15.01 0 01270.45 412zM252.35 362.25v.01a55.42 55.42 0 00-28.2 10.25L114.02 69.87l-96.25 34.72L7.5 76.39l96.25-34.71a29.99 29.99 0 0138.45 17.93l110.15 302.64z" />
  </g>
  <path fill="#dca746" d="M335.46 63.76l28.2-10.26 44.46 122.16-28.2 10.26z" />
  <path fill="#f6bb42" d="M379.91 185.94l28.2-10.26 54.73 150.35-28.2 10.26z" />
  <path fill="#aab2bc" d="M463.3 325.92l30.94-11.26 10.26 28.2-30.94 11.25z" />
  <path d="M256.36 394.62a22.53 22.53 0 00-21.14 30.2 22.57 22.57 0 0021.14 14.8 22.53 22.53 0 0021.14-30.2 22.57 22.57 0 00-21.14-14.8zm2.56 29.55a7.46 7.46 0 01-9.6-4.49 7.51 7.51 0 0114.09-5.13 7.5 7.5 0 01-4.49 9.62z" />
  <path d="M509.68 348.25l.44-.45.07-.1.38-.46.03-.06c.13-.18.25-.36.36-.55l.06-.1c.1-.18.2-.35.28-.53l.09-.22.18-.45.1-.32a7.62 7.62 0 00.22-.93l.03-.15c.18-1.2.07-2.45-.37-3.67l-10.26-28.19a7.47 7.47 0 00-3.84-4.2l-.04-.03-.34-.14c-.11-.04-.22-.1-.33-.13l-.08-.03a7.45 7.45 0 00-4.98.05l-24.53 8.92-52.17-143.35-20.52-56.38a7.53 7.53 0 00-9.61-4.48 7.51 7.51 0 00-4.49 9.61l17.96 49.33-96.31 35.06h-.02l-58.71 21.37-39.34-108.05 51.69-18.81 11.11 30.53a7.52 7.52 0 009.61 4.48l37.6-13.68a7.45 7.45 0 004.85-8.12V114l-.12-.58-.04-.16a7.43 7.43 0 00-.22-.73L307.31 82l51.68-18.81 11.11 30.53a7.54 7.54 0 009.62 4.48 7.51 7.51 0 004.48-9.6L370.52 51a7.54 7.54 0 00-9.61-4.48l-65.74 23.93-.04.01-.06.02-37.46 13.64-.07.02-.1.05-65.67 23.9a7.45 7.45 0 00-4.48 9.61l44.45 122.15 42.76 117.48a62.05 62.05 0 00-16.94-2.7L149.25 57.05a37.54 37.54 0 00-48.07-22.42L4.95 69.35h-.02l-.5.22-.2.08-.46.26-.2.1-.42.3-.19.12-.37.31-.19.16-.33.34-.18.18-.29.36-.16.2-.24.37-.16.24-.2.38-.14.26-.15.38c-.04.1-.09.18-.12.28l-.11.38-.1.31-.08.38-.06.33-.04.39-.04.34v.73c0 .14.03.27.04.4l.03.34.08.4.07.34.12.4.1.32v.03l10.27 28.19.27.6.22.47c.12.21.26.4.4.6.08.12.15.26.24.37.16.21.35.4.53.58l.24.27c.2.19.43.36.65.52l.23.19c.24.17.5.3.76.44.07.04.14.1.22.13.26.13.54.23.81.32l.24.1c.28.08.57.14.86.2l.24.05a7.31 7.31 0 001.78.06l.13-.01.5-.07.24-.05c.14-.03.27-.05.4-.09l.43-.13.2-.07h.03l89.19-32.18 105.76 290.58a62.59 62.59 0 00-17.65 68.45 62.7 62.7 0 0058.74 41.14 62.3 62.3 0 0021.37-3.78A62.1 62.1 0 00313 443.53a62.33 62.33 0 005.86-25.21l188.2-68.44.15-.07c.2-.07.38-.14.56-.23l.23-.12.43-.24.24-.16.38-.26.1-.1c.16-.12.31-.24.46-.38l.07-.07zm-194.6 47.5a62.2 62.2 0 00-2.99-6.9l177.67-64.6 5.13 14.1-177.67 64.6a63.55 63.55 0 00-2.13-7.2zm7.65-154.43l-8.55-23.49 23.5-8.55 8.55 23.49-23.5 8.55zm-20.97-130.7l-23.5 8.55-8.54-23.5 23.5-8.54 8.54 23.49zm-53.35 131.15l51.68-18.8 11.11 30.53a7.52 7.52 0 009.61 4.47l37.6-13.68a7.5 7.5 0 004.47-9.6l-11.11-30.54 51.68-18.8 49.61 136.28-149.64 54.42a62.88 62.88 0 00-9.3-8.7L248.4 241.78zM121.06 67.3l-.15-.35-.15-.34-.16-.3-.2-.37-.16-.23-.26-.38-.15-.18c-.1-.13-.2-.26-.32-.38l-.14-.14c-.13-.13-.25-.26-.38-.37l-.12-.1a7 7 0 00-.45-.36l-.07-.04a7.6 7.6 0 00-.53-.35l-.05-.02a7.53 7.53 0 00-3.38-1.01h-.03a7.43 7.43 0 00-.7 0h-.13l-.6.07-.3.06c-.15.02-.3.05-.44.09-.17.04-.34.1-.5.15l-.23.06-.02.01L22.23 95l-5.13-14.1 89.18-32.16h.02a22.52 22.52 0 0128.84 13.44l107.03 294.08a62.75 62.75 0 00-14.09 5.14L121.06 67.31zM299.4 437.2a47.18 47.18 0 01-26.8 24.55 47.35 47.35 0 01-16.25 2.88 47.65 47.65 0 01-44.63-31.27 47.55 47.55 0 0144.62-63.76A47.65 47.65 0 01301 400.87a47.18 47.18 0 01-1.58 36.32z" />
</svg>
