<svg xmlns="http://www.w3.org/2000/svg" x="0px" y="0px" viewBox="0 0 512 512">
  <path d="M406 384v70a48 48 0 1096 0v-70h-96z" fill="#feda9b"/>
  <path d="M454 502H110a48 48 0 01-48-48V10h344v444a48 48 0 0048 48" fill="#fff"/>
  <path d="M307 229.4c0 1.7-66.5 88-148.5 88S10 230.5 10 229.4c0-1.6 66.5-87.9 148.5-87.9s148.5 86.8 148.5 88z" fill="#edf2fa"/>
  <circle cx="158.5" cy="229.44" r="48.26" fill="#72d8ff"/>
  <circle cx="177.3" cy="210.64" r="21.677" fill="#fff"/>
  <rect x="121.99" y="368" width="224" height="80" fill="#ade5ff"/>
  <path d="M502 374h-48a10 10 0 000 20h38v60a38 38 0 01-76 0V10a10 10 0 00-10-10H62a10 10 0 00-10 10v47a10 10 0 0020 0V20h324v434c0 14.5 5.4 27.8 14.2 38H110c-21 0-38-17-38-38v-76a10 10 0 00-20 0v76c0 32 26 58 58 58h344c32 0 58-26 58-58v-70a10 10 0 00-10-10z"/>
  <path d="M62 342a10 10 0 0010-10 10 10 0 00-10-10 10 10 0 00-10 10 10 10 0 0010 10zM269.8 281.8c14.7-11.9 26-23.5 33-31.2 14.2-15.8 14.2-18.3 14.2-21.2 0-3 0-5.1-14.3-20.9a304 304 0 00-32.9-31.2c-25.7-20.9-65.9-45.8-111.3-45.8-45.5 0-85.6 24.8-111.3 45.6a297.8 297.8 0 00-33 31.2C0 224.1 0 226.6 0 229.4c0 3 0 5.2 14.3 21 7 7.7 18.3 19.3 32.9 31.2 25.7 20.9 65.9 45.8 111.3 45.8 45.5 0 85.6-24.8 111.3-45.6zM22.5 229.3c6.5-7.9 20.6-23.6 40.2-39 22.5-17.7 57.4-38.8 95.8-38.8 66 0 121 60.1 136 78a268 268 0 01-40.2 39.1c-22.5 17.7-57.4 38.8-95.8 38.8-66 0-121-60.2-136-78.1z"/>
  <path d="M216.8 229.4a58 58 0 00-58.3-58.2 58.3 58.3 0 1058.3 58.2zM185.6 219a11.7 11.7 0 11-16.6-16.6 11.7 11.7 0 0116.6 16.6zm-65.4 10.5a38.3 38.3 0 0131.7-37.6 31.7 31.7 0 0044.3 44.3 38.3 38.3 0 01-76-6.7zM168.5 95.3V50a10 10 0 00-20 0v45.3a10 10 0 0020 0zM110 122.8a10 10 0 007-17L98.8 87.4a10 10 0 00-14.1 14.2l18.2 18.2c2 2 4.5 2.9 7 2.9zM213 121l19.3-19.3a10 10 0 00-14.1-14.2L198.8 107a10 10 0 0014.2 14.2zM346 358H122a10 10 0 00-10 10v80a10 10 0 0010 10h224a10 10 0 0010-10v-80a10 10 0 00-10-10zm-10 80H132v-60h204v60zM346 310h-62a10 10 0 000 20h62a10 10 0 000-20zM346 262h-19.5a10 10 0 000 20H346a10 10 0 000-20zM303.5 122H346a10 10 0 000-20h-42.5a10 10 0 000 20zM303.5 74H346a10 10 0 000-20h-42.5a10 10 0 000 20zM303.5 170H346a10 10 0 000-20h-42.5a10 10 0 000 20z"/>
</svg>
