<svg xmlns="http://www.w3.org/2000/svg" x="0px" y="0px" viewBox="0 0 511.787 511.787">
  <g transform="translate(1 1)">
    <path d="M409.3 166.9l-8.5-2.6c-4.3-.8-6.8-6-6-10.2l24-90.5a10 10 0 0111-6.8l8.6 2.6c4.2.8 6.8 6 6 10.2L419.5 161c-.9 4.3-6 6.8-10.3 6" fill="#ffdd09"/>
    <path d="M390.6 73l-65.7-17.9 6.8-24.7c.8-4.3 6-6.9 10.2-6L391.4 38c4.3.9 6.9 6 6 10.3L390.6 73z" fill="#fd9808"/>
    <g fill="#fcc309">
      <polygon points="363.265,172.013 297.559,154.093 324.012,55.107 390.572,73.027"/>
      <polygon points="339.372,229.187 355.585,169.453 306.092,156.653 286.465,229.187"/>
      <polygon points="198.572,229.187 266.839,229.187 266.839,84.12 198.572,84.12"/>
    </g>
    <path d="M232.7 7.3L220 23.5a97 97 0 00-21.3 60.6h68.2a97 97 0 00-21.3-60.6L232.7 7.3z" fill="#54c9fd"/>
    <path d="M137.1 74.7l-65.7 18-4.2-17.1c-5.2-18 6-36.7 23.9-41.8 17.9-4.3 36.6 6 41.8 24.7l4.2 16.2z" fill="#1cd759"/>
    <path d="M113.2 229.2H179L137.1 74.7l-65.7 18L108.1 230c1.7-.8 3.4-.8 5.1-.8" fill="#fcc309"/>
    <g fill="#ffdd09">
      <path d="M377.8 229.2h-26.5c14.5 0 25.6 11 25.6 25.6s-11 25.6-25.6 25.6h26.5c14.5 0 25.6-11.1 25.6-25.6s-11.1-25.6-25.6-25.6"/>
      <path d="M325.7 280.4h-186c-14.5 0-25.6-11.1-25.6-25.6s11-25.6 25.6-25.6h186.9c14.5 0 25.6 11 25.6 25.6s-12 25.6-26.5 25.6"/>
    </g>
    <path d="M114 254.8c0-14.5 11.2-25.6 25.7-25.6h-26.5c-14.5 0-25.6 11-25.6 25.6s11.1 25.6 25.6 25.6h26.5c-14.5 0-25.6-11.1-25.6-25.6" fill="#fff"/>
    <path d="M352.2 229.2h-26.5c14.5 0 25.6 11 25.6 25.6s-11 25.6-25.6 25.6h26.5c14.5 0 25.6-11.1 25.6-25.6s-11.1-25.6-25.6-25.6" fill="#fd9808"/>
    <g fill="#ffdd09">
      <path d="M352.2 280.4v204.8c0 14.5-9.4 25.6-20.5 25.6h20.5c14.5 0 25.6-11.1 25.6-25.6V280.4h-25.6zM306 502.3H159.4c-11 0-20.5-11.1-20.5-25.6V280.4h187.8v196.3c0 14.5-9.4 25.6-20.5 25.6"/>
    </g>
    <path d="M138.8 476.7V280.4h-25.6v196.3c0 14.5 11.1 25.6 25.6 25.6h20.5c-11 0-20.5-11.1-20.5-25.6" fill="#fff"/>
    <path d="M326.6 280.4v196.3c0 14.5-9.4 25.6-20.5 25.6h20.5c14.5 0 25.6-11.1 25.6-25.6V280.4h-25.6z" fill="#fd9808"/>
    <polygon points="326.572,442.52 352.172,442.52 352.172,340.12 326.572,340.12" fill="#33a9f8"/>
    <polygon points="198.572,442.52 326.572,442.52 326.572,340.12 198.572,340.12" fill="#54c9fd"/>
    <path d="M326.6 510.8H138.8a34.2 34.2 0 01-34-34.1V280.4c0-5.1 3.3-8.5 8.4-8.5h239c5 0 8.5 3.4 8.5 8.5v196.3a34.2 34.2 0 01-34.1 34zM121.8 288.9v187.8c0 9.3 7.7 17 17 17h187.8c9.4 0 17-7.7 17-17V288.9H121.8z"/>
    <path d="M352.2 289h-239a34.2 34.2 0 010-68.3h239c18.7 0 34.1 15.3 34.1 34S371 289 352.2 289zm-239-51.3c-9.3 0-17 7.7-17 17 0 9.5 7.7 17.2 17 17.2h239a17.1 17.1 0 000-34.1h-239z"/>
    <path d="M266.8 237.7h-68.2c-5.1 0-8.6-3.4-8.6-8.5v-145c0-5.2 3.5-8.6 8.6-8.6h68.2c5.2 0 8.6 3.4 8.6 8.5v145c0 5.2-3.4 8.6-8.6 8.6zm-59.7-17h51.2v-128h-51.2v128z"/>
    <path d="M266.8 92.7h-68.2c-5.1 0-8.6-3.5-8.6-8.6a106 106 0 0123-65.7L226 2.2a8.9 8.9 0 0113.6 0l12.8 16.2a106 106 0 0123 65.7c0 5.1-3.3 8.6-8.5 8.6zm-59.7-17.1h51.2a94.4 94.4 0 00-18.8-47l-6.8-7.6-6 7.7a88.3 88.3 0 00-19.6 46.9z"/>
    <path d="M232.7 237.7c-5.1 0-8.5-3.4-8.5-8.5v-145c0-5.2 3.4-8.6 8.5-8.6s8.5 3.4 8.5 8.5v145c0 5.2-3.4 8.6-8.5 8.6zM363.3 180.5h-2.6L295 162.6c-4.3-.8-6.8-6-6-10.2l26.5-99c.8-2.6 1.7-4.3 4.2-5.1 1.8-.9 4.3-1.7 6.9-.9l65.7 18c2.5 0 4.2 1.7 5.1 3.4.9 1.7 1.7 4.2.9 6.8l-26.5 99c-.9 2.5-1.7 4.2-4.3 5-.8 1-2.5 1-4.2 1zm-55.5-32.4l49.5 13.7L379.5 79 330 65.3l-22.2 82.8z"/>
    <path d="M415.3 88.4h-2.5L388 81.6c-4.3-.9-6.8-6-6-10.3.9-4.2 6-7.7 10.3-6l24.7 6.9c4.3.8 6.9 6 6 10.2-.9 3.4-4.3 6-7.7 6z"/>
    <path d="M411.9 175.4c-1.7 0-2.6 0-4.3-.8l-8.5-2.6c-4.3-.8-7.7-4.3-10.2-7.7a17 17 0 01-1.7-12.8L411 61.1c.8-4.3 4.2-7.7 7.6-10.3a17 17 0 0112.8-1.7l8.6 2.6c4.2.8 7.6 4.3 10.2 7.7a17 17 0 011.7 12.8l-23.9 90.4c-.8 4.3-4.2 7.7-7.7 10.3a19 19 0 01-8.5 2.5zm15.4-110l-24 90.4 8.6 2.6 23.9-90.5-8.5-2.6zM390.6 81.6H388l-65.7-18c-4.3-.8-6.8-6-6-10.2l6.9-24.7c.8-4.3 3.4-8.6 7.6-10.3a17 17 0 0112.8-1.7l49.5 13.7c4.3.8 7.7 4.2 10.3 7.6a17 17 0 011.7 12.8l-6.8 24.8c-.9 2.5-1.8 4.3-4.3 5.1-.9.9-2.6.9-3.4.9zM335 49l49.5 13.7 4.3-16.2-49.5-13.7-4.3 16.2zM71.4 101.2c-3.4 0-6.8-2.6-8.5-6L58.6 79C56.1 67 57 56 63 45.7s14.5-17 25.6-19.6c11-3.4 23-1.7 32.4 4.3 10.3 6 17 14.5 19.6 25.6l4.3 16.2c.9 2.5 0 4.2-.8 6.8 0 1.7-2.6 3.4-4.3 4.3L74 101.2h-2.6zm28.2-59.7c-1.7 0-4.3 0-6 .8-6.8 1.7-12.8 6-16.2 12-3.4 6-4.3 12.8-2.6 19.6l2.6 8.5 49.5-13.6-2.6-8.6c-1.7-6-6-12-12-15.3a20.6 20.6 0 00-12.7-3.4z"/>
    <path d="M108.1 238.6c-3.4 0-6.8-2.6-8.5-6L62.9 94.4c-.9-2.6 0-4.3.8-6.9 1.8-1.7 3.5-2.5 5.2-3.4l65.7-17.9c4.2-.9 9.4 1.7 10.2 6l41 154.4c.8 2.6 0 5.1-1.7 7.7 0 2.6-2.6 3.4-5.2 3.4H109.8c-.8.9-.8.9-1.7.9zm6.8-18h53L131.2 85 81.7 98.6l33.2 122zM339.4 237.7h-53c-2.5 0-5-.8-6.8-3.4-1.7-1.7-2.5-5.1-1.7-7.7l19.7-72.5c.8-2.6 1.7-4.3 4.2-5.1s4.3-1.7 6.9-.9l49.4 13.7c4.3.8 6.9 6 6 10.2L348 231.7c-.8 3.5-4.3 6-8.5 6zm-41.8-17h35l11.9-45.3-33.3-8.5-13.6 53.8zM352.2 451H198.6c-5.1 0-8.6-3.4-8.6-8.5V340.1c0-5.1 3.5-8.5 8.6-8.5h153.6c5 0 8.5 3.4 8.5 8.5v102.4c0 5.1-3.4 8.6-8.5 8.6zm-145-17h136.4v-85.3H207.1V434z"/>
    <path d="M352.2 382.8H232.7c-5.1 0-8.5-3.4-8.5-8.5s3.4-8.6 8.5-8.6h119.5c5 0 8.5 3.4 8.5 8.6s-3.4 8.5-8.5 8.5zM352.2 417H249.8c-5.1 0-8.6-3.5-8.6-8.6s3.5-8.5 8.6-8.5h102.4c5 0 8.5 3.4 8.5 8.5s-3.4 8.5-8.5 8.5z"/>
  </g>
</svg>
