<svg xmlns="http://www.w3.org/2000/svg" viewBox="0 0 464 464">
  <path fill="#ccc" d="M231.99 312l-176-56V64l176-56 176 56v192z" />
  <path fill="gray" d="M231.99 312V120l176-56v192z" />
  <path fill="#999" d="M231.99 120l-176-56 176-56 176 56z" />
  <path
    fill="#6b968b"
    d="M117.32 44.49l176 56v64l18.67-5.94 24-7.64 14.66-4.66V82.24l-176-56z"
  />
  <path
    fill="#608778"
    d="M293.32 100.49v64l18.67-5.94 24-7.64 14.66-4.66V82.24z"
  />
  <path
    d="M183.99 424v32l-80-56 80-56v32h72a40 40 0 0040-40v-80h64v88a80 80 0 01-80 80h-96z"
    fill="#f9b659"
  />
  <g fill="#294f61">
    <path d="M231.99 128c-.82 0-1.63-.13-2.4-.38l-136-43.27a8 8 0 114.84-15.25L232 111.6l173.6-55.2a8 8 0 114.85 15.25l-176 56c-.8.24-1.62.36-2.45.35z" />
    <path d="M231.99 248a8 8 0 01-8-8V120a8 8 0 0116 0v120a8 8 0 01-8 8zM231.99 320a8 8 0 01-8-8v-40a8 8 0 0116 0v40a8 8 0 01-8 8z" />
    <path d="M231.99 320c-.82 0-1.63-.13-2.4-.38l-176-56a8 8 0 01-5.6-7.62V64a8 8 0 015.6-7.62l176-56a8 8 0 014.84 0l176 56A8 8 0 01416 64v192a8 8 0 01-5.6 7.62l-16 5.1a8 8 0 11-4.85-15.25l10.4-3.32V69.85L231.99 16.4l-168 53.45v180.3l168 53.45 29.6-9.4a8 8 0 114.85 15.25l-32 10.17c-.8.25-1.62.38-2.45.38z" />
  </g>
  <g fill="#999">
    <path d="M87.99 240a8 8 0 01-8-8v-24a8 8 0 0116 0v24a8 8 0 01-8 8zM119.99 248a8 8 0 01-8-8v-24a8 8 0 0116 0v24a8 8 0 01-8 8z" />
  </g>
  <g fill="#294f61">
    <path d="M335.99 158.91a8 8 0 01-2.4-15.62l9.09-2.89V88.1L172.23 33.86a8 8 0 114.85-15.24l176 56a8 8 0 015.6 7.62v64a8 8 0 01-5.6 7.62l-14.67 4.67c-.78.25-1.6.38-2.42.38z" />
    <path d="M293.32 172.5a8 8 0 01-8-8v-58.16L114.92 52.1a8 8 0 114.86-15.25l176 56a8 8 0 015.6 7.63v53.05l8.24-2.62a8 8 0 114.85 15.25l-18.67 5.95c-.8.25-1.64.38-2.48.38zM183.99 464a8 8 0 01-4.59-1.45l-80-56a8 8 0 010-13.1l80-56A8 8 0 01192 344v24h64a32 32 0 0032-32v-32a8 8 0 0116 0v32a48.05 48.05 0 01-48 48h-72a8 8 0 01-8-8v-16.63L117.94 400l58.05 40.63V424a8 8 0 018-8h96a72.08 72.08 0 0072-72V232a8 8 0 0116 0v112a88.1 88.1 0 01-88 88h-88v24a8 8 0 01-8 8z" />
    <path d="M295.99 280a8 8 0 01-8-8v-16a8 8 0 0116 0v16a8 8 0 01-8 8zM359.99 208a8 8 0 01-8-8v-16a8 8 0 0116 0v16a8 8 0 01-8 8zM327.99 288a8 8 0 01-8-8v-64a8 8 0 0116 0v64a8 8 0 01-8 8z" />
  </g>
</svg>
