<svg
  height="500pt"
  viewBox="0 0 500 500"
  width="500pt"
  xmlns="http://www.w3.org/2000/svg"
>
  <path
    d="M380.21 8.4a105.5 105.5 0 11-.15 211 105.5 105.5 0 01.15-211zm0 0"
    fill="#00efd1"
  />
  <path
    d="M366.04 407.33v.11a54.78 54.78 0 01-54.78 54.73h-.17a54.78 54.78 0 01-54.73-54.84V371.9H72.76v-.48L74.7 83.73h204.17l.15.05a105.65 105.65 0 0087.02 134.82zM149.37 184.57c9.72 0 17.6-7.52 17.6-16.79s-7.88-16.8-17.6-16.8c-9.72 0-17.6 7.52-17.6 16.8 0 9.28 7.87 16.79 17.6 16.79zm0 69.54c9.72 0 17.6-7.52 17.6-16.8s-7.88-16.79-17.6-16.79c-9.72 0-17.6 7.52-17.6 16.8s7.87 16.8 17.6 16.8zm0 69.53c9.72 0 17.6-7.5 17.6-16.79s-7.88-16.79-17.6-16.79c-9.72 0-17.6 7.52-17.6 16.8 0 9.26 7.87 16.78 17.6 16.78zm0 0"
    fill="#fedb41"
  />
  <path
    d="M307.33 462.04l-.01.13H62.99A54.78 54.78 0 018.2 407.44V371.9h248.15v35.43a54.78 54.78 0 0050.97 54.71zm0 0"
    fill="#00acea"
  />
  <path
    d="M166.97 167.78c0 9.27-7.88 16.79-17.6 16.79-9.72 0-17.6-7.52-17.6-16.79s7.87-16.8 17.6-16.8 17.6 7.52 17.6 16.8zm0 0M166.97 237.31c0 9.28-7.88 16.8-17.6 16.8-9.72 0-17.6-7.52-17.6-16.8s7.87-16.79 17.6-16.79 17.6 7.52 17.6 16.8zm0 0M166.97 306.85c0 9.28-7.88 16.8-17.6 16.8-9.72 0-17.6-7.52-17.6-16.8s7.87-16.79 17.6-16.79 17.6 7.52 17.6 16.8zm0 0"
    fill="#00efd1"
  />
  <g fill="#083863">
    <path d="M378.8 70.23l.2.01c.3 0 .6-.02.9-.05a17.9 17.9 0 0117.72 17.86 8 8 0 0016 0A33.92 33.92 0 00387 54.97v-7.69a8 8 0 00-16 0v8.04a33.88 33.88 0 008.75 66.6 17.87 17.87 0 11-17.87 17.87 8 8 0 10-16 0A33.93 33.93 0 00371 172.51v8.77a8 8 0 0016 0v-8.4a33.87 33.87 0 00-7.25-66.96 17.86 17.86 0 01-.95-35.69zm0 0" />
    <path d="M380.21.4a112.37 112.37 0 00-68.49 22.73 117.31 117.31 0 00-38.45 52.15H74.7c-4.4 0-7.97 3.97-8 8.36L64.8 364.28H8.21c-4.42 0-8.21 3.2-8.21 7.62v35.55c0 33.63 27 61.15 60 62.65v.18h247v-.23c2 .08 2.9.23 4.09.23h.17A62.9 62.9 0 00374 407.44V227.37c2 .11 4.13.18 6.2.18 62.72 0 113.57-50.84 113.58-113.57C493.78 51.25 442.94.4 380.21.39zM16 407.43v-27.16h232v27.04c0 18.5 8.43 34.96 21.35 46.96H63A47.1 47.1 0 0116 407.44zm295.2 46.84h-.11c-1 0-2.24-.09-3.4-.16A47.12 47.12 0 01264 407.33V371.9a7.4 7.4 0 00-7.64-7.62H80.8l1.83-273h186.2a124.19 124.19 0 00-2.2 22.72c0 16.2 3.45 31.28 9.7 46.28h-75.62a8 8 0 000 16h84.31a112.39 112.39 0 0072.97 49.1v182.05a46.9 46.9 0 01-46.8 46.85zm69.01-242.73c-4.38 0-8.75-.29-13.1-.87-48.16-6.46-84.48-48.04-84.48-96.7 0-53.9 43.69-97.59 97.58-97.59 53.9 0 97.58 43.7 97.58 97.59s-43.69 97.57-97.58 97.57zm0 0" />
    <path d="M149.37 212.52c-14.12 0-25.6 11.12-25.6 24.8s11.48 24.8 25.6 24.8c14.12 0 25.6-11.13 25.6-24.8s-11.49-24.8-25.6-24.8zm0 33.6c-5.3 0-9.6-3.96-9.6-8.8s4.3-8.8 9.6-8.8 9.6 3.94 9.6 8.8-4.3 8.8-9.6 8.8zm0 0M307.37 229.28H200.72a8 8 0 000 16h106.65a8 8 0 000-16zm0 0M149.37 142.98c-14.12 0-25.6 11.13-25.6 24.8s11.48 24.79 25.6 24.79c14.12 0 25.6-11.12 25.6-24.79s-11.49-24.8-25.6-24.8zm0 33.59c-5.3 0-9.6-3.94-9.6-8.79s4.3-8.8 9.6-8.8 9.6 3.95 9.6 8.8-4.3 8.79-9.6 8.79zm0 0M149.37 282.06c-14.12 0-25.6 11.12-25.6 24.8 0 13.66 11.48 24.78 25.6 24.78 14.12 0 25.6-11.12 25.6-24.79s-11.49-24.79-25.6-24.79zm0 33.58c-5.3 0-9.6-3.94-9.6-8.79s4.3-8.79 9.6-8.79 9.6 3.94 9.6 8.8c0 4.84-4.3 8.78-9.6 8.78zm0 0M307.37 299.28H200.72a8 8 0 000 16h106.65a8 8 0 000-16zm0 0" />
  </g>
</svg>
