<svg height="512" viewBox="0 0 60 60" width="512" xmlns="http://www.w3.org/2000/svg">
  <g fill="none">
    <path d="M58 3v6a2 2 0 01-2 2H41.6a7.1 7.1 0 01-1.6-.2V1.2a7.1 7.1 0 011.6-.2H56a2 2 0 012 2z" fill="#cfd8dc"/>
    <path d="M56 1h-3a2 2 0 012 2v6a2 2 0 01-2 2h3a2 2 0 002-2V3a2 2 0 00-2-2z" fill="#9e9e9e"/>
    <path d="M40 1.2v9.6a6.6 6.6 0 01-1.5-.5L34 8V4l4.5-2.3 1.5-.5z" fill="#607d8b"/>
    <path d="M34 4v4h-2c-1.1 0-2-.9-2-2s.9-2 2-2z" fill="#37474f"/>
    <path d="M59 38v17a4 4 0 01-4 4H41a4 4 0 01-4-4V38z" fill="#ef314c"/>
    <path d="M56 38v17a4 4 0 01-4 4h3a4 4 0 004-4V38z" fill="#bb193b"/>
    <path d="M59 37.3v.7H37v-.7c0-1.1.1-2.2.4-3.3L43 11h3v7a1 1 0 001 1h2a1 1 0 001-1v-7h3l5.6 23c.3 1 .4 2.2.4 3.3z" fill="#00bcd4"/>
    <path d="M58.6 34L53 11h-3l5.6 23c.3 1 .4 2.2.4 3.3v.7h3v-.7a13 13 0 00-.4-3.3z" fill="#00838f"/>
    <path d="M23 5v6H11V5a4 4 0 014-4h4a4 4 0 014 4z" fill="#00bcd4"/>
    <path d="M19 1h-3a4 4 0 014 4v6h3V5a4 4 0 00-4-4z" fill="#00838f"/>
    <path d="M31 47c-2-5 1-12 1-21s-9-15-9-15H11s-9 6-9 15 3 16 1 21-3 12 4 12h20c7 0 6-7 4-12zm-7-13c-2.2 0-4-3.4-4-7.5s1.8-7.5 4-7.5 4 3.4 4 7.5-1.8 7.5-4 7.5z" fill="#60a917"/>
    <path d="M22.5 19.6A2.5 2.5 0 0021 19c-2.2 0-4 3.4-4 7.5s1.8 7.5 4 7.5c.6 0 1-.2 1.5-.6-1.5-1-2.5-3.7-2.5-6.9s1-5.8 2.5-7z" fill="#549414"/>
    <path d="M31 47c-2-5 1-12 1-21s-9-15-9-15h-3s9 6 9 15-3 16-1 21 3 12-4 12h3c7 0 6-7 4-12z" fill="#549414"/>
    <path d="M50 11v7a1 1 0 01-1 1h-2a1 1 0 01-1-1v-7z" fill="#00838f"/>
    <circle cx="41" cy="42" fill="#000" r="1"/>
    <circle cx="44" cy="48" fill="#000" r="1"/>
    <circle cx="55" cy="42" fill="#000" r="1"/>
    <circle cx="55" cy="54" fill="#000" r="1"/>
    <circle cx="52" cy="48" fill="#000" r="1"/>
    <circle cx="42" cy="55" fill="#000" r="1"/>
    <path d="M8 55H6a1 1 0 010-2h2a1 1 0 010 2zm20 0H12a1 1 0 010-2h16a1 1 0 010 2zm-3-4H9a1 1 0 010-2h16a1 1 0 010 2z" fill="#f5f5f5"/>
    <g fill="#000">
      <circle cx="41" cy="42" r="1"/>
      <circle cx="44" cy="48" r="1"/>
      <circle cx="55" cy="42" r="1"/>
      <circle cx="55" cy="54" r="1"/>
      <circle cx="52" cy="48" r="1"/>
      <circle cx="42" cy="55" r="1"/>
      <path d="M54.3 12H56a3 3 0 003-3V3a3 3 0 00-3-3H41.6a8 8 0 00-3.5.8L33.8 3H32a3 3 0 000 6h1.8l3.2 1.6c0 3.6-.8 7.2-2.6 10.3a1 1 0 001.7 1 21.9 21.9 0 003-10.3c.8.3 1.7.4 2.5.4h.1l-5.3 21.8a14 14 0 00-.4 3.5V55a5 5 0 005 5h14a5 5 0 005-5V37.3a14 14 0 00-.5-3.5zm3.3 22.3c.2.9.4 1.8.4 2.7h-9V20a2 2 0 002-2v-6h1.2zM49 18h-2v-6h2zM31 6a1 1 0 011-1h1v2h-1a1 1 0 01-1-1zm10 4V8a1 1 0 00-2 0v1.4l-4-2V4.6l4-2V4a1 1 0 002 0V2h15a1 1 0 011 1v6a1 1 0 01-1 1H41zm2.8 2H45v6c0 1.1.9 2 2 2v17h-9c0-1 .2-1.9.4-2.8zM55 58H41a3 3 0 01-3-3V39h9v14a1 1 0 002 0V39h9v16a3 3 0 01-3 3z"/>
      <path d="M33 26c0-8.4-7.1-14.1-9-15.5V5a5 5 0 00-5-5h-4a5 5 0 00-5 5v5.5C8.1 11.9 1 17.6 1 26c0 3.5.4 6.9 1 10.3.6 4 1.1 7.6 0 10.3-1 2.8-2.5 7.8-.4 11C2.6 59.2 4.5 60 7 60h20c2.5 0 4.3-.8 5.4-2.4 2.1-3.2.6-8.2-.5-11-1-2.7-.5-6.2.1-10.3.6-3.4 1-6.9 1-10.3zM12 5a3 3 0 013-3h4a3 3 0 013 3v5H12zm18.8 51.5c-.8 1-2 1.5-3.8 1.5H7c-1.8 0-3-.5-3.8-1.5-1.1-1.8-.9-5.2.7-9.1 1.3-3.2.7-7 0-11.4A65.3 65.3 0 013 26c0-7.5 7-13 8.3-14h11.4C24 13 31 18.4 31 26a65.3 65.3 0 01-1 10c-.6 4.4-1.2 8.2 0 11.4 1.7 4 2 7.3.8 9z"/>
      <path d="M24 18c-2.8 0-5 3.7-5 8.5s2.2 8.5 5 8.5 5-3.7 5-8.5-2.2-8.5-5-8.5zm0 15c-1.4 0-3-2.7-3-6.5s1.6-6.5 3-6.5 3 2.7 3 6.5-1.6 6.5-3 6.5z"/>
    </g>
  </g>
</svg>
