<svg xmlns="http://www.w3.org/2000/svg" viewBox="0 0 512 512">
  <g fill="#72d8ff">
    <path d="M209.44 442a31.99 31.99 0 000 56 31.99 31.99 0 000-56zM401.56 442a31.99 31.99 0 000 56 31.99 31.99 0 000-56z" />
  </g>
  <path fill="#ef3c3c" d="M321 64h127v95.99H321z" />
  <path fill="#fea02c" d="M199 10h57v149.99h-57z" />
  <g fill="#72d8ff">
    <path d="M492.47 211.99H181.5l23.23 166.13H462zM34.75 64v40h35.66L64 64z" />
  </g>
  <path d="M167.25 344a10 10 0 0010-10V208a10 10 0 00-20 0v126a10 10 0 0010 10zM247.25 344a10 10 0 0010-10V208a10 10 0 00-20 0v126a10 10 0 0010 10zM327.25 344a10 10 0 0010-10V208a10 10 0 00-20 0v126a10 10 0 0010 10zM407.25 344a10 10 0 0010-10V208a10 10 0 00-20 0v126a10 10 0 0010 10z" />
  <path d="M462 388.12a10 10 0 009.84-8.2l40-218.13A10 10 0 00502 150h-44V64a10 10 0 00-10-10H266V10a10 10 0 00-10-10H152a10 10 0 00-10 10v139.99H88.93L73.86 62.3A10 10 0 0064 54H10A10 10 0 000 64v40a10 10 0 0010 10h52.45L108 378.98v13.01a56.08 56.08 0 0050.36 55.73 41.74 41.74 0 00-6.42 22.28c0 23.16 18.84 42 42 42s42-18.84 42-42c0-8.06-2.3-15.6-6.25-22H350.3a41.74 41.74 0 00-6.24 22c0 23.16 18.84 42 42 42s42-18.84 42-42c0-8.06-2.29-15.6-6.24-22H462a10 10 0 000-20H164c-19.85 0-36-16.15-36-36v-3.88h334zM20 94V74h35.57l3.44 20h-39zm195.94 376c0 12.13-9.87 22-22 22s-22-9.87-22-22 9.87-22 22-22 22 9.87 22 22zm192.13 0c0 12.13-9.87 22-22 22s-22-9.87-22-22 9.86-22 22-22 22 9.87 22 22zM438 74v75.99H266.13V114h86.89a10 10 0 000-20h-86.9V74H438zM162 20h84v129.99h-84V20zm328 149.99l-36.33 198.13H126.43L92.37 170H490z" />
  <path d="M404.11 114c2.62 0 5.2-1.07 7.07-2.93 1.86-1.86 2.93-4.44 2.93-7.07s-1.07-5.21-2.93-7.07a10.11 10.11 0 00-7.07-2.93c-2.63 0-5.21 1.07-7.08 2.93-1.86 1.86-2.92 4.44-2.92 7.07s1.06 5.21 2.92 7.07a10.12 10.12 0 007.08 2.93z" />
</svg>
