<svg
  height="512"
  viewBox="0 0 64 64"
  width="512"
  xmlns="http://www.w3.org/2000/svg"
>
  <path d="M50.5 4.01v15h-16v-15h6v3.01h4V4.01z" fill="#ffce54" />
  <path d="M19.5 4.01h4v3.01h-4z" fill="#e6e9ed" />
  <path d="M29.5 4.01v15h-16v-15h6v3.01h4V4.01z" fill="#ffce54" />
  <path d="M40.5 4.01h4v3.01h-4z" fill="#e6e9ed" />
  <path d="M55.5 19.01v3h-47v-3h42z" fill="#545c66" />
  <path d="M29.5 25.99h5v3h-5z" fill="#e6e9ed" />
  <path d="M29.5 25.99v3h5v-3h16v11.99h-37V25.99z" fill="#ffce54" />
  <path d="M55.5 37.98v3h-47v-3h42z" fill="#545c66" />
  <path d="M58.5 2.5V63h-3V2.5a1.5 1.5 0 113 0z" fill="#656d78" />
  <path d="M50.5 43.99v12.99h-14V43.99h5V47h4v-3.01z" fill="#ffce54" />
  <path d="M41.5 43.99h4V47h-4zM20.5 46.99h4V50h-4z" fill="#e6e9ed" />
  <path d="M31.51 46.99v9.99H13.5v-9.99h7V50h4v-3.01z" fill="#ffce54" />
  <path d="M55.5 56.98v3h-47v-3h42z" fill="#545c66" />
  <path d="M8.5 59.98V63H5.52L5.5 2.5a1.5 1.5 0 113 0V56.98z" fill="#656d78" />
  <g fill="#f6bb42">
    <path d="M48.5 4.01h2v15h-2zM48.5 26h2v11.98h-2zM48.5 43.99h2v12.99h-2zM29.5 46.99h2v9.99h-2zM27.5 4.01h2v15h-2z" />
  </g>
  <path d="M8.5 3.5a1 1 0 01-1-1 .5.5 0 00-1 0 1 1 0 11-2 0 2.5 2.5 0 015 0 1 1 0 01-1 1z" />
  <path d="M5.52 64a1 1 0 01-1-1L4.5 2.5a1 1 0 112 0L6.52 63a1 1 0 01-1 1zM8.5 64a1 1 0 01-1-1V2.5a1 1 0 112 0V63a1 1 0 01-1 1zM58.5 3.5a1 1 0 01-1-1 .5.5 0 00-1 0 1 1 0 11-2 0 2.5 2.5 0 015 0 1 1 0 01-1 1z" />
  <path d="M58.5 64a1 1 0 01-1-1V2.5a1 1 0 112 0V63a1 1 0 01-1 1zM55.5 64a1 1 0 01-1-1V2.5a1 1 0 112 0V63a1 1 0 01-1 1z" />
  <path d="M55.5 41.98h-47a1 1 0 110-2h47a1 1 0 110 2zM55.5 38.98h-47a1 1 0 110-2h47a1 1 0 110 2zM55.5 60.98h-47a1 1 0 110-2h47a1 1 0 110 2zM55.5 57.98h-47a1 1 0 110-2h47a1 1 0 110 2zM55.5 23h-47a1 1 0 110-2h47a1 1 0 110 2zM55.5 20h-47a1 1 0 110-2h47a1 1 0 110 2z" />
  <path d="M31.5 57.98h-18a1 1 0 01-1-1v-10a1 1 0 011-1h18a1 1 0 011 1v10a1 1 0 01-1 1zm-17-2h16v-8h-16zM50.5 57.98h-14a1 1 0 01-1-1v-13a1 1 0 011-1h14a1 1 0 011 1v13a1 1 0 01-1 1zm-13-2h12v-11h-12zM50.5 38.98h-37a1 1 0 01-1-1v-12a1 1 0 011-1h37a1 1 0 011 1v12a1 1 0 01-1 1zm-36-2h35v-10h-35zM29.5 20h-16a1 1 0 01-1-1V4a1 1 0 011-1h16a1 1 0 011 1v15a1 1 0 01-1 1zm-15-2h14V5h-14zM50.5 20h-16a1 1 0 01-1-1V4a1 1 0 011-1h16a1 1 0 011 1v15a1 1 0 01-1 1zm-15-2h14V5h-14z" />
  <path d="M29.5 29.98a1 1 0 01-1-1v-3a1 1 0 112 0v3a1 1 0 01-1 1z" />
  <path d="M34.5 29.98h-5a1 1 0 110-2h5a1 1 0 110 2z" />
  <path d="M34.5 29.98a1 1 0 01-1-1v-3a1 1 0 112 0v3a1 1 0 01-1 1zM19.5 8.02a1 1 0 01-1-1V4a1 1 0 112 0v3a1 1 0 01-1 1z" />
  <path d="M23.5 8.02h-4a1 1 0 110-2h4a1 1 0 110 2z" />
  <path d="M23.5 8.02a1 1 0 01-1-1V4a1 1 0 112 0v3a1 1 0 01-1 1zM40.5 8.02a1 1 0 01-1-1V4a1 1 0 112 0v3a1 1 0 01-1 1z" />
  <path d="M44.5 8.02h-4a1 1 0 110-2h4a1 1 0 110 2z" />
  <path d="M44.5 8.02a1 1 0 01-1-1V4a1 1 0 112 0v3a1 1 0 01-1 1zM41.5 48a1 1 0 01-1-1v-3.01a1 1 0 112 0v3a1 1 0 01-1 1z" />
  <path d="M45.5 48h-4a1 1 0 110-2h4a1 1 0 110 2z" />
  <path d="M45.5 48a1 1 0 01-1-1v-3.01a1 1 0 112 0v3a1 1 0 01-1 1zM20.5 51a1 1 0 01-1-1v-3.01a1 1 0 112 0v3a1 1 0 01-1 1z" />
  <path d="M24.5 51h-4a1 1 0 110-2h4a1 1 0 110 2z" />
  <path d="M24.5 51a1 1 0 01-1-1v-3.01a1 1 0 112 0v3a1 1 0 01-1 1zM8.5 64H5.52a1 1 0 110-2H8.5a1 1 0 110 2zM58.5 64h-3a1 1 0 110-2h3a1 1 0 110 2z" />
</svg>
